<svg preserveAspectRatio="none" width="100%" height="100%" overflow="visible" style="display: block;" viewBox="0 0 18 18" fill="none" xmlns="http://www.w3.org/2000/svg">
<g id="Group 9 Copy 3">
<g id="Fill 1">
</g>
<path id="Fill 3" fill-rule="evenodd" clip-rule="evenodd" d="M9.0004 7.2705C9.2764 7.2705 9.5004 7.4945 9.5004 7.7705V12.3945C9.5004 12.6705 9.2764 12.8945 9.0004 12.8945C8.7244 12.8945 8.5004 12.6705 8.5004 12.3945V7.7705C8.5004 7.4945 8.7244 7.2705 9.0004 7.2705" fill="var(--fill-0, #3B3B3B)"/>
<path id="Fill 5" fill-rule="evenodd" clip-rule="evenodd" d="M9.0004 5.1055C9.4044 5.1055 9.7334 5.4305 9.7334 5.8315C9.7334 6.2315 9.4044 6.5575 9.0004 6.5575C8.5954 6.5575 8.2664 6.2315 8.2664 5.8315C8.2664 5.4305 8.5954 5.1055 9.0004 5.1055" fill="var(--fill-0, #3B3B3B)"/>
<path id="Fill 7" fill-rule="evenodd" clip-rule="evenodd" d="M9.0004 15.0489C12.3354 15.0489 15.0494 12.3349 15.0494 8.9999C15.0494 5.6649 12.3354 2.9509 9.0004 2.9509C5.6644 2.9509 2.9504 5.6649 2.9504 8.9999C2.9504 12.3349 5.6644 15.0489 9.0004 15.0489M9.0004 1.9509C12.8874 1.9509 16.0494 5.1129 16.0494 8.9999C16.0494 12.8869 12.8874 16.0489 9.0004 16.0489C5.1124 16.0489 1.9504 12.8869 1.9504 8.9999C1.9504 5.1129 5.1124 1.9509 9.0004 1.9509" fill="var(--fill-0, #3B3B3B)"/>
</g>
</svg>
