<svg preserveAspectRatio="none" width="100%" height="100%" overflow="visible" style="display: block;" viewBox="0 0 24 24" fill="none" xmlns="http://www.w3.org/2000/svg">
<g id="210921_TataNeu_appicon_dark_24px_Artboard 2 (2) 1" clip-path="url(#clip0_0_4)">
<path id="Vector" d="M12 24C18.6274 24 24 18.6274 24 12C24 5.37258 18.6274 0 12 0C5.37258 0 0 5.37258 0 12C0 18.6274 5.37258 24 12 24Z" fill="var(--fill-0, white)"/>
<path id="Vector_2" d="M10.4299 8.35906C10.5537 8.1509 10.62 7.91367 10.6222 7.67152C10.6244 7.42937 10.5624 7.19097 10.4425 6.98059C10.3225 6.77021 10.149 6.59538 9.93951 6.47391C9.73003 6.35243 9.49209 6.28865 9.24993 6.28906C8.9792 6.29543 8.71632 6.38132 8.49405 6.53602C8.27178 6.69072 8.09994 6.9074 7.99993 7.15906L4.99993 14.5491C4.95557 14.6465 4.93174 14.752 4.92993 14.8591C4.92993 14.9562 4.94907 15.0525 4.98626 15.1423C5.02345 15.232 5.07796 15.3136 5.14667 15.3823C5.21539 15.451 5.29696 15.5055 5.38675 15.5427C5.47653 15.5799 5.57275 15.5991 5.66993 15.5991C5.79948 15.5979 5.92653 15.5632 6.03869 15.4984C6.15085 15.4336 6.2443 15.3408 6.30993 15.2291L10.4299 8.35906Z" fill="url(#paint0_linear_0_4)"/>
<path id="Vector_3" d="M7.90994 7.99805C7.84711 7.71906 7.87877 7.42709 7.99994 7.16805C8.08881 6.93797 8.23772 6.73591 8.43118 6.5829C8.62464 6.42989 8.85557 6.33153 9.09994 6.29805C9.42419 6.26059 9.75109 6.341 10.021 6.52459C10.2908 6.70818 10.4857 6.98271 10.5699 7.29805L13.4799 16.5381C13.5945 16.9162 13.5945 17.3199 13.4799 17.6981C13.3694 18.1478 13.1062 18.5453 12.7353 18.8226C12.3643 19.0999 11.9086 19.2399 11.446 19.2187C10.9833 19.1974 10.5424 19.0163 10.1984 18.7061C9.85444 18.396 9.62878 17.9761 9.55994 17.5181L7.90994 7.99805Z" fill="url(#paint1_linear_0_4)"/>
<path id="Vector_4" d="M18.74 8.7616C18.9134 8.44816 19.0212 8.10271 19.0568 7.74629C19.0924 7.38987 19.0552 7.02992 18.9472 6.68837C18.8393 6.34682 18.663 6.0308 18.4291 5.75955C18.1952 5.4883 17.9085 5.26749 17.5865 5.11057C17.2645 4.95365 16.9139 4.86389 16.5561 4.84677C16.1983 4.82964 15.8408 4.88551 15.5053 5.01096C15.1698 5.13642 14.8633 5.32883 14.6045 5.5765C14.3458 5.82417 14.1401 6.12191 14 6.4516L9.74004 16.3616C9.58724 16.7068 9.53524 17.0881 9.59004 17.4616C9.64342 17.8848 9.83072 18.2799 10.1246 18.5891C10.4185 18.8984 10.8035 19.1055 11.2235 19.1803C11.6434 19.2552 12.0763 19.1938 12.4589 19.0051C12.8415 18.8164 13.1538 18.5103 13.35 18.1316L18.74 8.7616Z" fill="url(#paint2_linear_0_4)"/>
</g>
<defs>
<linearGradient id="paint0_linear_0_4" x1="5.32993" y1="15.5191" x2="9.85993" y2="6.42906" gradientUnits="userSpaceOnUse">
<stop offset="0.1" stop-color="#0096FF"/>
<stop offset="0.18" stop-color="#1680FF"/>
<stop offset="0.39" stop-color="#4D49FF"/>
<stop offset="0.57" stop-color="#7521FF"/>
<stop offset="0.71" stop-color="#8D09FF"/>
<stop offset="0.8" stop-color="#9600FF"/>
</linearGradient>
<linearGradient id="paint1_linear_0_4" x1="8.68994" y1="6.38805" x2="12.0999" y2="19.1281" gradientUnits="userSpaceOnUse">
<stop offset="0.1" stop-color="#9600FF"/>
<stop offset="0.27" stop-color="#B600DF"/>
<stop offset="0.5" stop-color="#DE00B7"/>
<stop offset="0.69" stop-color="#F6009F"/>
<stop offset="0.8" stop-color="#FF0096"/>
</linearGradient>
<linearGradient id="paint2_linear_0_4" x1="10.69" y1="18.9916" x2="17.62" y2="5.0916" gradientUnits="userSpaceOnUse">
<stop offset="0.1" stop-color="#FF0096"/>
<stop offset="0.19" stop-color="#FF1680"/>
<stop offset="0.43" stop-color="#FF4D49"/>
<stop offset="0.63" stop-color="#FF7521"/>
<stop offset="0.8" stop-color="#FF8D09"/>
<stop offset="0.9" stop-color="#FF9600"/>
</linearGradient>
<clipPath id="clip0_0_4">
<rect width="24" height="24" fill="white"/>
</clipPath>
</defs>
</svg>
