<svg preserveAspectRatio="none" width="100%" height="100%" overflow="visible" style="display: block;" viewBox="0 0 36.9697 33.8354" fill="none" xmlns="http://www.w3.org/2000/svg">
<g id="Group 48096585">
<path id="Rectangle 321722" d="M6.69907 0.461538H26.5799V3.675H30.0631V16.3195H6.69907V0.461538Z" fill="var(--fill-0, #FFFEFB)"/>
<path id="Rectangle 321722 (Stroke)" fill-rule="evenodd" clip-rule="evenodd" d="M6.23753 0.461538C6.23753 0.206638 6.44417 0 6.69907 0H26.5799C26.6959 0 26.8076 0.0436664 26.8928 0.12231L30.3761 3.33577C30.4708 3.42315 30.5246 3.54614 30.5246 3.675V16.3195C30.5246 16.5744 30.318 16.7811 30.0631 16.7811H6.69907C6.44417 16.7811 6.23753 16.5744 6.23753 16.3195V0.461538ZM7.16061 0.923077V15.858H29.6016V4.13654H26.5799C26.325 4.13654 26.1183 3.9299 26.1183 3.675V0.923077H7.16061ZM27.0414 1.51528L28.8822 3.21346H27.0414V1.51528Z" fill="var(--fill-0, #BB9083)"/>
<path id="Rectangle 321720" d="M0.461538 18.1657C0.461538 16.6363 1.70137 15.3965 3.23077 15.3965H33.739C35.2684 15.3965 36.5082 16.6363 36.5082 18.1657V29.4517C36.5082 29.9615 36.0949 30.3748 35.5851 30.3748H1.38461C0.874813 30.3748 0.461538 29.9615 0.461538 29.4517V18.1657Z" fill="var(--fill-0, #F9ECE8)"/>
<path id="Rectangle 321720 (Stroke)" fill-rule="evenodd" clip-rule="evenodd" d="M0 18.1657C0 16.3814 1.44646 14.9349 3.23077 14.9349H33.739C35.5233 14.9349 36.9697 16.3814 36.9697 18.1657V29.4517C36.9697 30.2164 36.3498 30.8363 35.5851 30.8363H1.38461C0.619912 30.8363 0 30.2164 0 29.4517V18.1657ZM3.23077 15.858C1.95627 15.858 0.923077 16.8912 0.923077 18.1657V29.4517C0.923077 29.7066 1.12971 29.9132 1.38461 29.9132H35.5851C35.84 29.9132 36.0466 29.7066 36.0466 29.4517V18.1657C36.0466 16.8912 35.0135 15.858 33.739 15.858H3.23077Z" fill="var(--fill-0, #BB9083)"/>
<path id="Rectangle 321721" d="M6.69907 24.1337H30.0631V33.3738H6.69907V24.1337Z" fill="var(--fill-0, #FFFEFB)"/>
<path id="Rectangle 321721 (Stroke)" fill-rule="evenodd" clip-rule="evenodd" d="M6.23753 24.1337C6.23753 23.8788 6.44417 23.6722 6.69907 23.6722H30.0631C30.318 23.6722 30.5246 23.8788 30.5246 24.1337V33.3738C30.5246 33.6287 30.318 33.8354 30.0631 33.8354H6.69907C6.44417 33.8354 6.23753 33.6287 6.23753 33.3738V24.1337ZM7.16061 24.5952V32.9123H29.6016V24.5952H7.16061Z" fill="var(--fill-0, #BB9083)"/>
<path id="Ellipse 173" d="M5.95898 19.7059C5.95898 20.4358 5.36732 21.0274 4.63747 21.0274C3.90762 21.0274 3.31596 20.4358 3.31596 19.7059C3.31596 18.9761 3.90762 18.3844 4.63747 18.3844C5.36732 18.3844 5.95898 18.9761 5.95898 19.7059Z" fill="var(--fill-0, #BB9083)"/>
<path id="Ellipse 173 (Stroke)" fill-rule="evenodd" clip-rule="evenodd" d="M4.63747 18.8459C4.16252 18.8459 3.77749 19.231 3.77749 19.7059C3.77749 20.1809 4.16252 20.5659 4.63747 20.5659C5.11242 20.5659 5.49745 20.1809 5.49745 19.7059C5.49745 19.231 5.11242 18.8459 4.63747 18.8459ZM2.85442 19.7059C2.85442 18.7212 3.65272 17.9229 4.63747 17.9229C5.62222 17.9229 6.42052 18.7212 6.42052 19.7059C6.42052 20.6907 5.62222 21.489 4.63747 21.489C3.65272 21.489 2.85442 20.6907 2.85442 19.7059Z" fill="var(--fill-0, #BB9083)"/>
<path id="Ellipse 174" d="M33.8167 19.0452C33.8167 19.4101 33.5209 19.7059 33.1559 19.7059C32.791 19.7059 32.4952 19.4101 32.4952 19.0452C32.4952 18.6802 32.791 18.3844 33.1559 18.3844C33.5209 18.3844 33.8167 18.6802 33.8167 19.0452Z" fill="var(--fill-0, #BB9083)"/>
<path id="Ellipse 174 (Stroke)" fill-rule="evenodd" clip-rule="evenodd" d="M33.1559 18.8459C33.0459 18.8459 32.9567 18.9351 32.9567 19.0452C32.9567 19.1552 33.0459 19.2444 33.1559 19.2444C33.266 19.2444 33.3552 19.1552 33.3552 19.0452C33.3552 18.9351 33.266 18.8459 33.1559 18.8459ZM32.0337 19.0452C32.0337 18.4253 32.5361 17.9229 33.1559 17.9229C33.7758 17.9229 34.2782 18.4253 34.2782 19.0452C34.2782 19.665 33.7758 20.1675 33.1559 20.1675C32.5361 20.1675 32.0337 19.665 32.0337 19.0452Z" fill="var(--fill-0, #BB9083)"/>
<path id="Ellipse 175" d="M30.7239 19.0452C30.7239 19.4101 30.428 19.7059 30.0631 19.7059C29.6982 19.7059 29.4023 19.4101 29.4023 19.0452C29.4023 18.6802 29.6982 18.3844 30.0631 18.3844C30.428 18.3844 30.7239 18.6802 30.7239 19.0452Z" fill="var(--fill-0, #BB9083)"/>
<path id="Ellipse 175 (Stroke)" fill-rule="evenodd" clip-rule="evenodd" d="M30.0631 18.8459C29.9531 18.8459 29.8639 18.9351 29.8639 19.0452C29.8639 19.1552 29.9531 19.2444 30.0631 19.2444C30.1731 19.2444 30.2623 19.1552 30.2623 19.0452C30.2623 18.9351 30.1731 18.8459 30.0631 18.8459ZM28.9408 19.0452C28.9408 18.4253 29.4433 17.9229 30.0631 17.9229C30.6829 17.9229 31.1854 18.4253 31.1854 19.0452C31.1854 19.665 30.6829 20.1675 30.0631 20.1675C29.4433 20.1675 28.9408 19.665 28.9408 19.0452Z" fill="var(--fill-0, #BB9083)"/>
<g id="Group 4346">
<path id="Vector" d="M11.9546 10.3189L10.0049 13.061H18.2981L16.574 10.3189L11.9546 10.3189Z" fill="var(--fill-0, #BB9083)"/>
<path id="Vector (Stroke)" fill-rule="evenodd" clip-rule="evenodd" d="M12.4495 3.65236C12.4495 3.39746 12.6562 3.19082 12.9111 3.19082H15.4751C15.73 3.19082 15.9366 3.39746 15.9366 3.65236V7.41019C16.0816 7.68489 16.5156 8.50909 16.9987 9.4266C17.1096 9.63722 17.2231 9.85275 17.3362 10.0677L18.6536 12.5691C18.673 12.6059 18.6897 12.6375 18.7039 12.6644C18.7539 12.7592 18.7723 12.794 18.7652 12.7823C18.8143 12.8631 18.8411 12.9556 18.8426 13.0502C18.8441 13.145 18.8203 13.2383 18.7738 13.3204C18.7306 13.3967 18.667 13.4668 18.5777 13.5186C18.4884 13.5703 18.3958 13.5907 18.3081 13.5902L18.2633 13.5902C18.2078 13.5902 18.102 13.5902 17.9533 13.5902L10.0743 13.5902C10.0743 13.5902 10.0739 13.5902 10.0739 13.1287L10.0743 13.5902H10.0674C9.97382 13.5889 9.8821 13.5628 9.80165 13.5146C9.72124 13.4664 9.65505 13.3978 9.60973 13.3158C9.56441 13.2338 9.54157 13.1412 9.54355 13.0475C9.54537 12.9608 9.56839 12.8761 9.61035 12.8006L12.4495 7.40745V3.65236ZM10.7238 12.6671L14.1877 12.6671C15.5375 12.6671 16.8899 12.6671 17.6619 12.6671L16.5195 10.4978C16.3631 10.2007 16.2072 9.90477 16.059 9.62333C15.5204 8.6004 15.0826 7.76901 15.0843 7.77203C15.0434 7.70059 15.0289 7.62967 15.0266 7.61861C15.0265 7.61811 15.0264 7.61773 15.0264 7.61748C15.0236 7.60481 15.0217 7.59394 15.0204 7.58631L15.0188 7.576L15.0182 7.57207L15.018 7.57042L15.0179 7.56967L15.0178 7.56914C15.0178 7.5691 15.0178 7.56897 15.4751 7.50639L15.0178 7.56914C15.015 7.5484 15.0135 7.52733 15.0135 7.50639V4.1139H13.3726V7.50539M10.7238 12.6671L13.3016 7.77049ZM15.8854 7.31351C15.89 7.32155 15.8941 7.32932 15.8978 7.33668C15.8902 7.32245 15.886 7.31456 15.8854 7.31351ZM17.9767 13.2624C17.9712 13.2533 17.9661 13.244 17.9613 13.2346C17.9689 13.2486 17.9742 13.2581 17.9767 13.2624Z" fill="var(--fill-0, #BB9083)"/>
</g>
<path id="Vector 420 (Stroke)" fill-rule="evenodd" clip-rule="evenodd" d="M10.637 19.0452C10.637 18.7903 10.8437 18.5836 11.0986 18.5836H25.4975C25.7524 18.5836 25.9591 18.7903 25.9591 19.0452C25.9591 19.3001 25.7524 19.5067 25.4975 19.5067H11.0986C10.8437 19.5067 10.637 19.3001 10.637 19.0452Z" fill="var(--fill-0, #BB9083)"/>
<path id="Vector 421 (Stroke)" fill-rule="evenodd" clip-rule="evenodd" d="M9.97694 27.9421C9.97694 27.6872 10.1836 27.4805 10.4385 27.4805H22.9102C23.1651 27.4805 23.3717 27.6872 23.3717 27.9421C23.3717 28.197 23.1651 28.4036 22.9102 28.4036H10.4385C10.1836 28.4036 9.97694 28.197 9.97694 27.9421Z" fill="var(--fill-0, #BB9083)"/>
<path id="Vector 422 (Stroke)" fill-rule="evenodd" clip-rule="evenodd" d="M9.97694 30.111C9.97694 29.8561 10.1836 29.6495 10.4385 29.6495H16.8099C17.0648 29.6495 17.2714 29.8561 17.2714 30.111C17.2714 30.3659 17.0648 30.5726 16.8099 30.5726H10.4385C10.1836 30.5726 9.97694 30.3659 9.97694 30.111Z" fill="var(--fill-0, #BB9083)"/>
</g>
</svg>
