<svg preserveAspectRatio="none" width="100%" height="100%" overflow="visible" style="display: block;" viewBox="0 0 39.3861 43.7363" fill="none" xmlns="http://www.w3.org/2000/svg">
<g id="Group 48096767">
<path id="Rectangle 321737" d="M5.73633 20.8407C5.73633 18.8015 7.38943 17.1484 9.42864 17.1484H26.324C28.3632 17.1484 30.0163 18.8015 30.0163 20.8407V34.5133C30.0163 36.5525 28.3632 38.2056 26.324 38.2056H9.42863C7.38943 38.2056 5.73633 36.5525 5.73633 34.5133V20.8407Z" fill="var(--fill-0, #AD8372)"/>
<path id="Rectangle 321737 (Stroke)" fill-rule="evenodd" clip-rule="evenodd" d="M5.27466 20.8413C5.27466 18.5472 7.1344 16.6875 9.4285 16.6875H26.3239C28.618 16.6875 30.4777 18.5472 30.4777 20.8413V34.5139C30.4777 36.808 28.618 38.6678 26.3239 38.6678H9.4285C7.1344 38.6678 5.27466 36.808 5.27466 34.5139V20.8413ZM9.4285 17.6106C7.6442 17.6106 6.19774 19.057 6.19774 20.8413V34.5139C6.19774 36.2982 7.6442 37.7447 9.4285 37.7447H26.3239C28.1082 37.7447 29.5547 36.2982 29.5547 34.5139V20.8413C29.5547 19.057 28.1082 17.6106 26.3239 17.6106H9.4285Z" fill="var(--fill-0, #976D55)"/>
<g id="Group 5540">
<path id="Vector 1002" d="M4.00105 24.9707L0.37207 40.8682H35.9763L31.2366 24.3988L20.9429 19.6094C18.4266 22.0112 15.51 20.6101 14.3663 19.6094L4.00105 24.9707Z" fill="var(--fill-0, white)"/>
<path id="Vector 1003" d="M14.5967 19.4219V16.2656C18.339 17.6183 20.5146 16.8292 21.1345 16.2656V19.4219C18.6103 23.0768 15.8806 21.5963 14.5967 19.4219Z" fill="var(--fill-0, #F4C5A8)"/>
<path id="Vector (Stroke)" fill-rule="evenodd" clip-rule="evenodd" d="M14.66 16.0625C14.9149 16.0625 15.1216 16.2691 15.1216 16.524V19.4204C15.1216 19.6753 14.9149 19.8819 14.66 19.8819C14.4051 19.8819 14.1985 19.6753 14.1985 19.4204V16.524C14.1985 16.2691 14.4051 16.0625 14.66 16.0625Z" fill="var(--fill-0, #635746)"/>
<path id="Vector" d="M13.8221 19.5781L13.9926 23.2195C14.0105 23.2566 14.0372 23.2894 14.0708 23.3153C14.1043 23.3412 14.1438 23.3595 14.1861 23.3689C14.2284 23.3783 14.2724 23.3784 14.3148 23.3694C14.3572 23.3603 14.3968 23.3423 14.4306 23.3166L17.4849 21.7977" fill="var(--fill-0, white)"/>
<path id="Vector (Stroke)_2" fill-rule="evenodd" clip-rule="evenodd" d="M13.8006 19.1177C14.0552 19.1058 14.2713 19.3025 14.2832 19.5572L14.435 22.7996L17.2795 21.385C17.5077 21.2715 17.7848 21.3645 17.8983 21.5928C18.0118 21.821 17.9187 22.098 17.6905 22.2115L14.6658 23.7157C14.5877 23.7666 14.5012 23.8021 14.4114 23.8213C14.3044 23.8442 14.1933 23.8438 14.0863 23.8201C13.9792 23.7964 13.8772 23.7495 13.7888 23.6812C13.7003 23.6129 13.627 23.5243 13.577 23.4208L13.536 23.3359L13.3611 19.6003C13.3492 19.3457 13.5459 19.1296 13.8006 19.1177Z" fill="var(--fill-0, #AD8372)"/>
<path id="Vector_2" d="M21.8325 19.5781L21.6586 23.2195C21.6407 23.2566 21.614 23.2894 21.5804 23.3153C21.5469 23.3412 21.5074 23.3595 21.4651 23.3689C21.4228 23.3783 21.3788 23.3784 21.3364 23.3694C21.294 23.3603 21.2544 23.3423 21.2207 23.3166L18.6421 21.615" fill="var(--fill-0, white)"/>
<path id="Vector (Stroke)_3" fill-rule="evenodd" clip-rule="evenodd" d="M21.8544 19.1177C22.109 19.1299 22.3055 19.3461 22.2934 19.6007L22.1151 23.3361L22.0742 23.4208C22.0242 23.5243 21.9509 23.6129 21.8623 23.6812C21.7739 23.7495 21.672 23.7964 21.5649 23.8201C21.4578 23.8438 21.3468 23.8442 21.2397 23.8213C21.1387 23.7997 21.042 23.7575 20.9566 23.696L18.3878 22.0008C18.175 21.8604 18.1164 21.5741 18.2568 21.3614C18.3972 21.1486 18.6835 21.09 18.8962 21.2304L21.2183 22.7627L21.3713 19.5567C21.3835 19.3021 21.5998 19.1056 21.8544 19.1177Z" fill="var(--fill-0, #AD8372)"/>
<path id="Vector (Stroke)_4" fill-rule="evenodd" clip-rule="evenodd" d="M15.0758 19.2142C15.1866 19.4437 15.0904 19.7196 14.8608 19.8304L5.64296 24.2792C5.64288 24.2792 5.64304 24.2792 5.64296 24.2792C4.88818 24.645 4.28789 25.2667 3.94866 26.0327L0.913689 40.7755C0.862293 41.0252 0.618234 41.1859 0.368569 41.1345C0.118904 41.0831 -0.0418251 40.8391 0.00957118 40.5894L3.06362 25.7539L3.08193 25.7111C3.50521 24.7214 4.27176 23.9179 5.2404 23.4485L14.4596 18.9991C14.6891 18.8883 14.965 18.9846 15.0758 19.2142Z" fill="var(--fill-0, #AD8372)"/>
<path id="Vector (Stroke)_5" fill-rule="evenodd" clip-rule="evenodd" d="M20.9376 15.8984C21.1925 15.8984 21.3992 16.1051 21.3992 16.36V19.2563C21.3992 19.5112 21.1925 19.7179 20.9376 19.7179C20.6827 19.7179 20.4761 19.5112 20.4761 19.2563V16.36C20.4761 16.1051 20.6827 15.8984 20.9376 15.8984Z" fill="var(--fill-0, #635746)"/>
<path id="Vector (Stroke)_6" fill-rule="evenodd" clip-rule="evenodd" d="M20.5221 19.05C20.6329 18.8205 20.9089 18.7242 21.1384 18.8351L30.3524 23.2841C30.3524 23.2842 30.3524 23.2841 30.3524 23.2841C31.3229 23.7526 32.0913 24.5562 32.5158 25.5468L32.5227 25.5629L35.9934 35.7387C36.0756 35.98 35.9468 36.2423 35.7055 36.3245C35.4643 36.4068 35.202 36.278 35.1197 36.0367L31.6606 25.8947C31.3225 25.1161 30.7159 24.4846 29.9511 24.1154L20.737 19.6663C20.5075 19.5555 20.4113 19.2796 20.5221 19.05Z" fill="var(--fill-0, #AD8372)"/>
<path id="Vector (Stroke)_7" fill-rule="evenodd" clip-rule="evenodd" d="M13.4837 1.51984C13.7104 1.40337 13.9886 1.49277 14.1051 1.71951C15.1373 3.72915 16.6671 5.44093 18.5485 6.69171C20.4299 7.94248 22.6003 8.69055 24.8528 8.86461C25.107 8.88424 25.2971 9.10619 25.2774 9.36033C25.2578 9.61447 25.0359 9.80458 24.7817 9.78494C22.372 9.59873 20.0502 8.79846 18.0375 7.46041C16.0248 6.12237 14.3883 4.29114 13.284 2.14126C13.1675 1.91452 13.2569 1.6363 13.4837 1.51984Z" fill="var(--fill-0, #635746)"/>
<path id="Vector_3" d="M17.7743 17.065C21.7181 17.065 24.9151 13.348 24.9151 8.76294C24.9151 4.17787 21.7181 0.460938 17.7743 0.460938C13.8306 0.460938 10.6335 4.17787 10.6335 8.76294C10.6335 13.348 13.8306 17.065 17.7743 17.065Z" fill="var(--fill-0, #F4C5A8)"/>
<path id="Vector (Stroke)_8" fill-rule="evenodd" clip-rule="evenodd" d="M17.7744 0.923077C14.1483 0.923077 11.0952 4.36567 11.0952 8.76355C11.0952 13.1614 14.1483 16.604 17.7744 16.604C21.4004 16.604 24.4537 13.1614 24.4537 8.76355C24.4537 4.36567 21.4004 0.923077 17.7744 0.923077ZM10.1721 8.76355C10.1721 3.99128 13.5129 0 17.7744 0C22.0358 0 25.3767 3.99128 25.3767 8.76355C25.3767 13.5358 22.0358 17.5271 17.7744 17.5271C13.5129 17.5271 10.1721 13.5358 10.1721 8.76355Z" fill="var(--fill-0, #635746)"/>
<path id="Vector 999" d="M20.3516 0.955716C24.5136 3.00892 25.0454 7.36051 24.791 9.27966C20.4626 9.27966 16.6059 6.13506 15.2186 4.56276C14.2752 5.45066 11.6809 7.24489 10.5017 8.03101L11.4035 4.56276C12.652 2.50491 16.1897 -1.09749 20.3516 0.955716Z" fill="var(--fill-0, #635746)"/>
<path id="Vector 1012 (Stroke)" fill-rule="evenodd" clip-rule="evenodd" d="M17.8657 21.2734C18.1206 21.2734 18.3272 21.4801 18.3272 21.735V30.3574C18.3272 30.6123 18.1206 30.8189 17.8657 30.8189C17.6108 30.8189 17.4041 30.6123 17.4041 30.3574V21.735C17.4041 21.4801 17.6108 21.2734 17.8657 21.2734Z" fill="var(--fill-0, #AD8372)"/>
<path id="Vector (Stroke)_9" fill-rule="evenodd" clip-rule="evenodd" d="M15.4827 3.88292C15.6815 4.04251 15.7132 4.33301 15.5536 4.53177C14.3144 6.07518 12.7673 7.34355 11.0108 8.25612C10.7847 8.37364 10.506 8.28554 10.3885 8.05935C10.271 7.83315 10.3591 7.55452 10.5853 7.437C12.228 6.58353 13.6749 5.3973 14.8339 3.95384C14.9935 3.75508 15.284 3.72333 15.4827 3.88292Z" fill="var(--fill-0, #635746)"/>
<path id="Vector (Stroke)_10" fill-rule="evenodd" clip-rule="evenodd" d="M14.4115 19.2524C14.5918 19.0721 14.884 19.0721 15.0643 19.2524C15.1979 19.386 15.3316 19.5256 15.4671 19.6672C15.7736 19.9873 16.0896 20.3172 16.4357 20.6101C16.9365 21.0338 17.3878 21.2758 17.7895 21.2758C18.1922 21.2758 18.6485 21.0328 19.1542 20.6088C19.5108 20.3098 19.8378 19.9701 20.1525 19.6432C20.2812 19.5095 20.4078 19.378 20.5335 19.2524C20.7137 19.0721 21.0059 19.0721 21.1862 19.2524C21.3664 19.4326 21.3664 19.7249 21.1862 19.9051C21.0844 20.0068 20.9727 20.1228 20.8532 20.247C20.5277 20.585 20.1443 20.9832 19.7473 21.3161C19.2078 21.7685 18.5349 22.1989 17.7895 22.1989C17.0431 22.1989 16.3746 21.7675 15.8395 21.3148C15.4546 20.9892 15.0807 20.5989 14.7612 20.2654C14.6353 20.134 14.5179 20.0114 14.4116 19.9051C14.2313 19.7249 14.2313 19.4326 14.4115 19.2524Z" fill="var(--fill-0, #AD8372)"/>
<path id="Vector 1013" d="M24.618 11.0724C17.1745 11.8673 12.13 11.3892 10.6245 10.7267C10.9858 12.9851 13.0553 16.8718 17.7527 16.944C22.45 17.0163 24.2868 13.0597 24.618 11.0724Z" fill="var(--fill-0, #D0F5F5)"/>
<path id="Vector 1013 (Stroke)" fill-rule="evenodd" clip-rule="evenodd" d="M10.3423 10.3618C10.4761 10.2586 10.6556 10.2367 10.8103 10.3047C11.4768 10.598 13.037 10.8825 15.4144 10.9854C17.7681 11.0872 20.8669 11.0093 24.5689 10.6139C24.7124 10.5986 24.8548 10.6512 24.9537 10.7562C25.0527 10.8612 25.0969 11.0064 25.0732 11.1487C24.8958 12.2134 24.3223 13.7834 23.1681 15.0869C22.0012 16.4048 20.2433 17.4444 17.7455 17.406C12.7358 17.3289 10.5493 13.1792 10.1686 10.8001C10.142 10.6332 10.2086 10.4651 10.3423 10.3618ZM11.2552 11.416C11.8868 13.5542 13.8626 16.423 17.7597 16.483C19.9592 16.5168 21.4684 15.6142 22.477 14.475C23.2955 13.5506 23.786 12.4665 24.0277 11.5975C20.5664 11.9399 17.642 12.0057 15.3745 11.9076C13.6045 11.831 12.2029 11.6536 11.2552 11.416Z" fill="var(--fill-0, #EAF9F8)"/>
<path id="Vector 1014 (Stroke)" fill-rule="evenodd" clip-rule="evenodd" d="M14.7333 10.1044C14.3604 10.1388 13.9925 10.2593 13.7775 10.3566C13.5453 10.4618 13.2718 10.3587 13.1667 10.1265C13.0616 9.89433 13.1646 9.62086 13.3968 9.51572C13.6865 9.38455 14.1544 9.2308 14.6486 9.18522C15.1303 9.14078 15.7358 9.1911 16.1917 9.58809C16.384 9.75548 16.4041 10.047 16.2367 10.2393C16.0693 10.4315 15.7778 10.4516 15.5856 10.2843C15.4116 10.1328 15.1187 10.0688 14.7333 10.1044Z" fill="var(--fill-0, #635746)"/>
<path id="Vector 1015 (Stroke)" fill-rule="evenodd" clip-rule="evenodd" d="M20.2713 10.1044C20.6443 10.1388 21.0121 10.2593 21.2271 10.3566C21.4593 10.4618 21.7328 10.3587 21.8379 10.1265C21.9431 9.89433 21.8401 9.62086 21.6079 9.51572C21.3182 9.38455 20.8502 9.2308 20.3561 9.18522C19.8743 9.14078 19.2688 9.1911 18.8129 9.58809C18.6207 9.75548 18.6005 10.047 18.7679 10.2393C18.9353 10.4315 19.2268 10.4516 19.4191 10.2843C19.593 10.1328 19.886 10.0688 20.2713 10.1044Z" fill="var(--fill-0, #635746)"/>
</g>
<path id="Vector 1000" d="M28.2141 40.8304C27.0303 35.205 27.6911 26.4884 28.2141 22.5583C28.3405 21.6085 25.7243 19.7735 25.0463 21.5729C24.3682 23.3723 23.0842 41.5021 28.2141 40.8304Z" fill="var(--fill-0, #AD8372)"/>
<path id="Vector 999 (Stroke)" fill-rule="evenodd" clip-rule="evenodd" d="M25.7566 20.3819C25.2464 20.4816 24.8349 20.8256 24.6144 21.4108L24.6144 21.4108C24.5084 21.6921 24.4091 22.223 24.3199 22.8835C24.2283 23.5621 24.1417 24.4255 24.0734 25.404C23.9368 27.3606 23.8724 29.7934 23.9912 32.1522C24.1096 34.5017 24.4114 36.8164 25.0256 38.5154C25.3322 39.3637 25.7307 40.0989 26.2582 40.6037C26.8019 41.124 27.4787 41.3929 28.274 41.2887C28.4015 41.272 28.5163 41.2029 28.5907 41.098C28.665 40.9931 28.6922 40.8619 28.6658 40.736C27.4993 35.1929 28.1495 26.5434 28.6716 22.6199C28.7302 22.1793 28.4779 21.7536 28.2181 21.4507C27.9381 21.1244 27.551 20.8238 27.1342 20.6205C26.7237 20.4203 26.2308 20.2892 25.7566 20.3819ZM27.5175 22.0518C27.7339 22.304 27.7612 22.4638 27.7566 22.4981C27.2498 26.3065 26.605 34.6507 27.6509 40.3582C27.3762 40.3005 27.1283 40.1587 26.8964 39.9368C26.5149 39.5717 26.1774 38.9866 25.8937 38.2016C25.327 36.634 25.0303 34.4297 24.9132 32.1058C24.7965 29.7912 24.8596 27.3961 24.9942 25.4683C25.0615 24.5046 25.1463 23.6616 25.2347 23.007C25.3255 22.3342 25.4146 21.9049 25.4782 21.7363C25.5967 21.4218 25.7665 21.3205 25.9336 21.2878C26.1366 21.2482 26.4171 21.2978 26.7296 21.4502C27.0358 21.5995 27.3214 21.8232 27.5175 22.0518Z" fill="var(--fill-0, #976D55)"/>
<g id="Group 5466">
<path id="Vector 79" d="M38.89 41.0237L34.8406 34.0101L30.988 36.2344L35.0374 43.248L36.3648 41.0987L38.89 41.0237Z" fill="var(--fill-0, #AD8372)"/>
<path id="Vector 79 (Stroke)" fill-rule="evenodd" clip-rule="evenodd" d="M30.6737 36.4082C30.5735 36.2345 30.633 36.0125 30.8066 35.9122L34.6592 33.6879C34.8329 33.5877 35.0549 33.6472 35.1552 33.8208L39.2045 40.8345C39.2684 40.9451 39.2694 41.0813 39.2072 41.1929C39.1449 41.3045 39.0286 41.3751 38.9009 41.3789L36.5711 41.4481L35.3464 43.4311C35.2793 43.5398 35.1599 43.6052 35.0321 43.6033C34.9043 43.6014 34.787 43.5325 34.7231 43.4218L30.6737 36.4082ZM31.4841 36.3595L35.048 42.5324L36.0561 40.9002C36.1202 40.7963 36.2322 40.7316 36.3542 40.728L38.2717 40.6711L34.7079 34.4983L31.4841 36.3595Z" fill="var(--fill-0, #976D55)"/>
<path id="Vector 80" d="M25.132 41.0237L29.1813 34.0101L33.0339 36.2344L28.9846 43.248L27.6571 41.0987L25.132 41.0237Z" fill="var(--fill-0, #AD8372)"/>
<path id="Vector 80 (Stroke)" fill-rule="evenodd" clip-rule="evenodd" d="M33.3482 36.4082C33.4485 36.2345 33.389 36.0125 33.2154 35.9122L29.3628 33.6879C29.1891 33.5877 28.967 33.6472 28.8668 33.8208L24.8174 40.8345C24.7536 40.9451 24.7525 41.0813 24.8148 41.1929C24.877 41.3045 24.9934 41.3751 25.1211 41.3789L27.4508 41.4481L28.6756 43.4311C28.7427 43.5398 28.8621 43.6052 28.9899 43.6033C29.1176 43.6014 29.235 43.5325 29.2989 43.4218L33.3482 36.4082ZM32.5379 36.3595L28.974 42.5324L27.9659 40.9002C27.9018 40.7963 27.7898 40.7316 27.6678 40.728L25.7502 40.6711L29.3141 34.4983L32.5379 36.3595Z" fill="var(--fill-0, #976D55)"/>
<path id="Vector_4" d="M32.983 24.8636C33.1831 24.7315 33.4112 24.6481 33.6493 24.62C33.8874 24.5919 34.1287 24.6199 34.354 24.7017C34.5794 24.7836 34.7824 24.917 34.9469 25.0914C35.1114 25.2658 35.2328 25.4762 35.3015 25.7059C35.3864 25.9934 35.5538 26.2496 35.783 26.4429C36.0122 26.6361 36.293 26.7579 36.5907 26.7931C36.829 26.8203 37.0576 26.9029 37.2582 27.0344C37.4587 27.1659 37.6257 27.3426 37.7456 27.5503C37.8655 27.7579 37.9351 27.9908 37.9487 28.2303C37.9624 28.4697 37.9197 28.709 37.8241 28.929C37.7052 29.2054 37.6698 29.5104 37.7221 29.8067C37.7744 30.1029 37.9121 30.3774 38.1184 30.5964C38.2828 30.7707 38.4042 30.981 38.4729 31.2105C38.5415 31.4401 38.5555 31.6825 38.5137 31.9184C38.472 32.1543 38.3756 32.3772 38.2324 32.5693C38.0891 32.7613 37.9029 32.9172 37.6887 33.0244C37.4196 33.159 37.1959 33.3696 37.0454 33.6301C36.8949 33.8906 36.8242 34.1896 36.8421 34.4899C36.8563 34.7291 36.8144 34.9683 36.7196 35.1884C36.6248 35.4085 36.4799 35.6034 36.2963 35.7575C36.1128 35.9116 35.8958 36.0206 35.6626 36.0759C35.4294 36.1311 35.1865 36.131 34.9534 36.0757C34.6609 36.0055 34.3542 36.0229 34.0715 36.1256C33.7888 36.2284 33.5425 36.412 33.3633 36.6536C33.2201 36.8457 33.034 37.0017 32.8199 37.1091C32.6058 37.2165 32.3695 37.2725 32.1299 37.2725C31.8904 37.2725 31.6541 37.2165 31.44 37.1091C31.2259 37.0017 31.0398 36.8457 30.8966 36.6536C30.7179 36.412 30.4721 36.2283 30.1897 36.1255C29.9073 36.0227 29.6009 36.0054 29.3087 36.0757C29.0754 36.131 28.8325 36.131 28.5992 36.0757C28.3659 36.0205 28.1488 35.9115 27.9651 35.7575C27.7814 35.6034 27.6363 35.4086 27.5413 35.1885C27.4462 34.9684 27.404 34.7292 27.4178 34.4899C27.4361 34.1898 27.3659 33.8908 27.2158 33.6303C27.0656 33.3698 26.8422 33.1591 26.5733 33.0244C26.3588 32.9175 26.1722 32.7618 26.0287 32.5698C25.8852 32.3777 25.7887 32.1547 25.7469 31.9187C25.7051 31.6826 25.7192 31.44 25.7881 31.2104C25.857 30.9808 25.9787 30.7705 26.1436 30.5964C26.35 30.3775 26.4877 30.1029 26.5397 29.8065C26.5916 29.5101 26.5555 29.205 26.4358 28.929C26.3407 28.709 26.2984 28.4698 26.3122 28.2305C26.3261 27.9912 26.3957 27.7585 26.5156 27.551C26.6354 27.3434 26.8022 27.1668 27.0025 27.0352C27.2028 26.9036 27.4311 26.8207 27.6692 26.7931C27.9666 26.7571 28.247 26.635 28.4761 26.4419C28.7051 26.2488 28.8727 25.993 28.9584 25.7059C29.027 25.4762 29.1485 25.2658 29.313 25.0914C29.4775 24.917 29.6805 24.7836 29.9059 24.7017C30.1312 24.6199 30.3725 24.5919 30.6106 24.62C30.8487 24.6481 31.0768 24.7315 31.2769 24.8636C31.5296 25.0319 31.8263 25.1217 32.1299 25.1217C32.4335 25.1217 32.7304 25.0319 32.983 24.8636Z" fill="var(--fill-0, #F9ECE8)"/>
<g id="Vector (Stroke)_11">
<path d="M33.1836 25.1699C33.2717 25.1118 33.3669 25.0661 33.4666 25.0337L30.568 24.9842C30.7495 25.0057 30.9236 25.0693 31.0762 25.1699C31.3884 25.3777 31.7549 25.4885 32.1299 25.4885C32.5049 25.4885 32.8715 25.3776 33.1836 25.1699Z" fill="var(--fill-0, #976D55)"/>
<path fill-rule="evenodd" clip-rule="evenodd" d="M30.6531 24.2631C30.3588 24.2283 30.0604 24.263 29.7818 24.3642C29.5033 24.4654 29.2522 24.6304 29.0488 24.8459C28.8455 25.0615 28.6953 25.3218 28.6105 25.6057C28.545 25.8251 28.4169 26.0205 28.2419 26.168C28.0672 26.3154 27.8532 26.4087 27.6263 26.4363C27.3323 26.4705 27.0504 26.573 26.8031 26.7355C26.5554 26.8981 26.3493 27.1165 26.2011 27.3731C26.0529 27.6297 25.9668 27.9174 25.9497 28.2132C25.9326 28.5091 25.985 28.8051 26.1026 29.0771C26.1941 29.288 26.2217 29.5211 26.182 29.7475C26.1423 29.9738 26.0372 30.1836 25.8796 30.3508C25.6759 30.566 25.5254 30.8259 25.4403 31.1097C25.3551 31.3937 25.3376 31.6937 25.3893 31.9856C25.441 32.2776 25.5603 32.5534 25.7378 32.7908C25.9153 33.0283 26.1454 33.2206 26.4107 33.3528C26.616 33.4556 26.7865 33.6164 26.9011 33.8153C27.0157 34.0141 27.0693 34.2423 27.0553 34.4714L27.0553 34.4726C27.0382 34.7684 27.0904 35.0641 27.2079 35.3361C27.3253 35.6081 27.5047 35.849 27.7317 36.0394C27.9588 36.2298 28.2272 36.3645 28.5155 36.4327C28.8038 36.501 29.104 36.501 29.3924 36.4326L29.3935 36.4324C29.6164 36.3788 29.85 36.392 30.0654 36.4704C30.2808 36.5488 30.4683 36.6889 30.6046 36.8732L30.6054 36.8744C30.7825 37.1118 31.0125 37.3045 31.2771 37.4373C31.5418 37.5701 31.8338 37.6393 32.1299 37.6393C32.426 37.6393 32.718 37.5701 32.9827 37.4373C33.2473 37.3045 33.4773 37.1118 33.6543 36.8744L33.6549 36.8736C33.7917 36.6892 33.9797 36.549 34.1955 36.4706C34.4112 36.3921 34.6461 36.379 34.8694 36.4326C35.1577 36.5011 35.4579 36.5011 35.7462 36.4329C36.0345 36.3646 36.3028 36.2298 36.5297 36.0393C36.7566 35.8488 36.9358 35.6078 37.053 35.3357C37.1702 35.0636 37.222 34.7678 37.2045 34.472C37.1908 34.2427 37.2448 34.0144 37.3598 33.8154C37.4747 33.6164 37.6457 33.4555 37.8512 33.3528C38.116 33.2202 38.3462 33.0275 38.5233 32.79C38.7004 32.5526 38.8196 32.2771 38.8712 31.9854C38.9228 31.6937 38.9055 31.394 38.8207 31.1102C38.7358 30.8265 38.5858 30.5665 38.3826 30.3511C38.2249 30.1837 38.1196 29.9738 38.0796 29.7473C38.0396 29.5209 38.0666 29.2879 38.1573 29.0768C38.2753 28.8049 38.328 28.5092 38.3112 28.2134C38.2943 27.9173 38.2083 27.6292 38.06 27.3724C37.9116 27.1155 37.7052 26.8971 37.4572 26.7345C37.2094 26.572 36.9269 26.4699 36.6325 26.4362C36.4057 26.4092 36.1917 26.3163 36.017 26.169C35.8422 26.0216 35.7144 25.826 35.6496 25.6067L35.6493 25.6057C35.5644 25.3217 35.4143 25.0615 35.2109 24.8459C35.0075 24.6304 34.7565 24.4654 34.478 24.3642C34.1994 24.263 33.901 24.2283 33.6067 24.2631C33.3123 24.2978 33.0302 24.401 32.7829 24.5643L32.7816 24.5651C32.5886 24.6937 32.3618 24.7624 32.1299 24.7624C31.8979 24.7624 31.6712 24.6937 31.4782 24.5651L31.4769 24.5643C31.2296 24.401 30.9474 24.2978 30.6531 24.2631ZM30.0298 25.0467C30.2019 24.9842 30.3862 24.9628 30.568 24.9842L33.4666 25.0337C33.5396 25.0099 33.615 24.9933 33.6918 24.9842C33.8736 24.9628 34.0579 24.9842 34.23 25.0467C34.4021 25.1092 34.5571 25.2111 34.6827 25.3443C34.8083 25.4773 34.9009 25.6378 34.9534 25.813L35.0458 26.0605C35.1617 26.3153 35.3332 26.5422 35.5489 26.7241C35.8324 26.9632 36.1797 27.1138 36.548 27.1574L36.5495 27.1576C36.7314 27.1783 36.9059 27.2414 37.059 27.3418C37.2122 27.4421 37.3396 27.577 37.4311 27.7355C37.5227 27.894 37.5758 28.0718 37.5862 28.2546C37.5966 28.4374 37.564 28.6201 37.491 28.788L37.4905 28.7893C37.3436 29.1307 37.2999 29.5075 37.3645 29.8735C37.4291 30.2395 37.5993 30.5786 37.8541 30.8491C37.9797 30.9822 38.0726 31.143 38.125 31.3182C38.1774 31.4935 38.1881 31.6787 38.1562 31.8588C38.1243 32.039 38.0507 32.2092 37.9413 32.3559C37.8319 32.5025 37.6898 32.6215 37.5263 32.7034C37.1936 32.8697 36.917 33.1302 36.731 33.4522C36.5449 33.7742 36.4575 34.1438 36.4796 34.5151C36.4905 34.6978 36.4584 34.8805 36.3861 35.0486C36.3137 35.2166 36.203 35.3655 36.0628 35.4831C35.9227 35.6008 35.7569 35.6841 35.5788 35.7263C35.4009 35.7684 35.2156 35.7684 35.0377 35.7262C34.6761 35.6396 34.2969 35.6611 33.9474 35.7881C33.5979 35.9151 33.2935 36.1421 33.0719 36.4407C32.9625 36.5873 32.8205 36.7063 32.657 36.7883C32.4934 36.8704 32.3129 36.9131 32.1299 36.9131C31.9468 36.9131 31.7664 36.8704 31.6028 36.7883C31.4394 36.7063 31.2974 36.5874 31.188 36.4409C30.967 36.1422 30.663 35.9151 30.3138 35.788C29.9645 35.6609 29.5856 35.6394 29.2243 35.7262C29.0463 35.7683 28.8609 35.7683 28.6828 35.7261C28.5046 35.6839 28.3387 35.6007 28.1983 35.483C28.058 35.3653 27.9471 35.2164 27.8745 35.0483C27.802 34.8803 27.7697 34.6977 27.7802 34.5151C27.8027 34.1441 27.7158 33.7747 27.5303 33.4527C27.3446 33.1305 27.0677 32.8697 26.7352 32.7032C26.5714 32.6216 26.429 32.5027 26.3195 32.3561C26.2099 32.2095 26.1362 32.0393 26.1043 31.8591C26.0724 31.6789 26.0832 31.4937 26.1358 31.3184C26.1884 31.1431 26.2819 30.9821 26.4077 30.8492C26.6628 30.5786 26.833 30.2392 26.8972 29.8729C26.9614 29.5066 26.9168 29.1296 26.7689 28.7884C26.6964 28.6205 26.6641 28.4379 26.6746 28.2552C26.6852 28.0725 26.7384 27.8948 26.8299 27.7363C26.9214 27.5778 27.0488 27.4429 27.2018 27.3424C27.3547 27.2419 27.5291 27.1786 27.7109 27.1575L27.7128 27.1573C28.0804 27.1128 28.427 26.9619 28.7101 26.7231C28.9931 26.4845 29.2003 26.1682 29.3063 25.8135C29.3587 25.6381 29.4514 25.4774 29.577 25.3443C29.7026 25.2111 29.8577 25.1092 30.0298 25.0467Z" fill="var(--fill-0, #976D55)"/>
</g>
<g id="Group 48096768">
<path id="Vector_5" d="M34.1199 31.8543L34.4646 33.8047C34.4729 33.8521 34.4675 33.9009 34.4489 33.9453C34.4303 33.9896 34.3994 34.0277 34.3597 34.055C34.3201 34.0822 34.2735 34.0975 34.2254 34.0989C34.1773 34.1004 34.1298 34.088 34.0886 34.0632L32.287 33.0998L30.4776 33.9692C30.4345 33.9891 30.3869 33.9972 30.3397 33.9925C30.2925 33.9878 30.2474 33.9706 30.209 33.9426C30.1707 33.9147 30.1405 33.877 30.1216 33.8335C30.1027 33.7899 30.0958 33.7422 30.1016 33.6951L30.4462 31.7603L28.9893 30.3504C28.9548 30.3178 28.9303 30.276 28.9186 30.2299C28.9069 30.1839 28.9085 30.1355 28.9233 30.0903C28.9381 30.0452 28.9654 30.0051 29.002 29.9749C29.0387 29.9447 29.0832 29.9255 29.1303 29.9196L31.1512 29.6924L32.052 27.9535C32.0747 27.9109 32.1086 27.8753 32.15 27.8505C32.1914 27.8256 32.2387 27.8125 32.287 27.8125C32.3353 27.8125 32.3826 27.8256 32.424 27.8505C32.4654 27.8753 32.4993 27.9109 32.522 27.9535L33.4228 29.7394L35.4359 30.0762C35.4836 30.0826 35.5286 30.1022 35.5658 30.1328C35.603 30.1634 35.6309 30.2038 35.6463 30.2494C35.6618 30.295 35.6642 30.344 35.6533 30.3909C35.6425 30.4378 35.6187 30.4808 35.5847 30.5149L34.1199 31.8543Z" fill="var(--fill-0, #AD8372)"/>
<path id="Vector (Stroke)_12" fill-rule="evenodd" clip-rule="evenodd" d="M31.7794 27.5428C31.8772 27.4842 31.9891 27.4531 32.1032 27.4531C32.2173 27.4531 32.3292 27.4841 32.427 27.5428C32.5249 27.6016 32.6049 27.6858 32.6585 27.7864L32.6624 27.7937L33.4803 29.4154L35.3074 29.7211C35.4195 29.7374 35.5251 29.7841 35.6126 29.8561C35.7021 29.9297 35.7692 30.0268 35.8064 30.1364C35.8436 30.2461 35.8494 30.364 35.8232 30.4768C35.797 30.5895 35.7399 30.6927 35.6581 30.7748L35.6521 30.7808L34.3284 31.9913L34.6383 33.7452C34.6588 33.8612 34.6455 33.9806 34.6 34.0892C34.5545 34.1979 34.4787 34.2911 34.3816 34.3578C34.2846 34.4246 34.1703 34.462 34.0526 34.4655C33.9386 34.469 33.826 34.4407 33.7273 34.3837L32.0944 33.5105L30.446 34.3026C30.3442 34.3496 30.2317 34.3685 30.1201 34.3575C30.0085 34.3464 29.9019 34.3057 29.8113 34.2397C29.7207 34.1736 29.6494 34.0845 29.6048 33.9817C29.5601 33.8789 29.5438 33.766 29.5574 33.6547L29.5586 33.6448L29.8711 31.8906L28.5542 30.6161C28.4706 30.5364 28.4112 30.4348 28.3829 30.3229C28.3543 30.2102 28.3583 30.0916 28.3945 29.9811C28.4306 29.8706 28.4974 29.7726 28.5872 29.6985C28.6769 29.6245 28.7858 29.5775 28.9013 29.563L28.9059 29.5624L30.7342 29.357L31.5478 27.7863C31.6015 27.6857 31.6815 27.6016 31.7794 27.5428ZM32.102 28.2952L31.2006 30.0353L29.2273 30.2571L30.6538 31.6375L30.311 33.5619L32.112 32.6964L33.8829 33.6435L33.5439 31.7247L34.9883 30.4039L32.9976 30.0709L32.102 28.2952Z" fill="var(--fill-0, #AD8372)"/>
</g>
</g>
<path id="Vector 999_2" d="M7.5662 40.8304C8.74994 35.205 8.08919 26.4884 7.5662 22.5583C7.4398 21.6085 10.0559 19.7735 10.734 21.5729C11.4121 23.3723 12.6961 41.5021 7.5662 40.8304Z" fill="var(--fill-0, #AD8372)"/>
<path id="Vector 999 (Stroke)_2" fill-rule="evenodd" clip-rule="evenodd" d="M10.0237 20.3819C10.5338 20.4816 10.9453 20.8256 11.1659 21.4108L11.1659 21.4108C11.2719 21.6921 11.3712 22.223 11.4604 22.8835C11.552 23.5621 11.6386 24.4255 11.7069 25.404C11.8435 27.3606 11.9079 29.7934 11.789 32.1522C11.6706 34.5017 11.3689 36.8164 10.7547 38.5154C10.4481 39.3637 10.0495 40.0989 9.52205 40.6037C8.97839 41.124 8.30162 41.3929 7.50625 41.2887C7.37874 41.272 7.26398 41.2029 7.18962 41.098C7.11526 40.9931 7.08804 40.8619 7.11452 40.736C8.28095 35.1929 7.63078 26.5434 7.10866 22.6199C7.05003 22.1793 7.30235 21.7536 7.56219 21.4507C7.8422 21.1244 8.22928 20.8238 8.64611 20.6205C9.05658 20.4203 9.54943 20.2892 10.0237 20.3819ZM8.26274 22.0518C8.04641 22.304 8.0191 22.4638 8.02367 22.4981C8.53046 26.3065 9.17524 34.6507 8.12942 40.3582C8.40409 40.3005 8.652 40.1587 8.88383 39.9368C9.26538 39.5717 9.60286 38.9866 9.88662 38.2016C10.4533 36.634 10.75 34.4297 10.8671 32.1058C10.9837 29.7912 10.9206 27.3961 10.7861 25.4683C10.7188 24.5046 10.6339 23.6616 10.5456 23.007C10.4548 22.3342 10.3656 21.9049 10.3021 21.7363C10.1836 21.4218 10.0138 21.3205 9.84667 21.2878C9.64364 21.2482 9.36321 21.2978 9.05069 21.4502C8.74452 21.5995 8.45889 21.8232 8.26274 22.0518Z" fill="var(--fill-0, #976D55)"/>
</g>
</svg>
